<?xml version="1.0" encoding="utf-8"?>
<svg viewBox="0 0 230.697 71.567" color-interpolation-filters="sRGB" style="margin: auto;" xmlns="http://www.w3.org/2000/svg">
  <rect data-v-0dd9719b="" x="-4.895" y="-6.526" width="2560" height="1283" fill="red" fill-opacity="0" class="background" transform="matrix(1, 0, 0, 1, -1.4210854715202004e-14, -2.842170943040401e-14)"/>
  <g data-v-0dd9719b="" fill="#0A0619" class="icon-text-wrapper icon-svg-group iconsvg" transform="matrix(1, 0, 0, 1, -1.4210854715202004e-14, -2.842170943040401e-14)">
    <g class="iconsvg-imagesvg" transform="matrix(1, 0, 0, 1, 170.695999, 0)" fill="#0A0619">
      <g fill="#0A0619">
        <rect fill="#0A0619" fill-opacity="0" stroke-width="2px" x="0" y="0" width="60" height="71.56659271452087" class="image-rect"/>
        <svg filter="url(#colors6609047804)" x="0" y="0" width="60" height="71.56659271452087" filtersec="colorsf1022617880" class="image-svg-svg primary" style="overflow: visible;" fill="#0A0619">
          <svg xmlns="http://www.w3.org/2000/svg" version="1.1" x="0px" y="0px" viewBox="90 58 332 396" enable-background="new 0 0 512 512" fill="#0A0619">
            <g fill="#0A0619">
              <path d="M354.485,58H90v396h332V125.515L354.485,58z M358,78.485L401.515,122H358V78.485z M102,442V70h244v64h64v308H102z" fill="#0A0619"/>
            </g>
          </svg>
        </svg>
        <defs>
          <filter id="colors6609047804">
            <feColorMatrix type="matrix" values="0 0 0 0 0  0 0 0 0 0  0 0 0 0 0  0 0 0 1 0" class="icon-fecolormatrix"/>
          </filter>
        </defs>
      </g>
    </g>
    <g transform="translate(0,11.56658935546875)" fill="#0A0619">
      <g data-gra="path-name" fill-rule="" class="tp-name iconsvg-namesvg" fill="#0A0619">
        <g transform="scale(1)" fill="#0A0619">
          <g fill="#0A0619">
            <path d="M7.48-11.96L7.48-11.96Q7.48-8.61 8.94-7.07 10.4-5.52 12.7-5.52L12.7-5.52Q13.96-5.52 15.07-5.87 16.18-6.22 16.88-6.7L16.88-6.7 16.88-18.49Q16.31-18.62 15.48-18.72 14.66-18.83 13.4-18.83L13.4-18.83Q10.53-18.83 9-16.94 7.48-15.05 7.48-11.96ZM22.14-22.01L22.14-2.31Q22.14 3.13 19.38 5.65 16.61 8.18 10.92 8.18L10.92 8.18Q8.83 8.18 6.85 7.83 4.87 7.48 3.26 6.92L3.26 6.92 4.22 2.44Q5.57 3 7.29 3.35 9 3.7 11 3.7L11 3.7Q14.18 3.7 15.53 2.39 16.88 1.09 16.88-1.48L16.88-1.48 16.88-2.35Q16.09-1.96 14.81-1.57 13.53-1.17 11.87-1.17L11.87-1.17Q9.7-1.17 7.89-1.87 6.09-2.57 4.81-3.91 3.52-5.26 2.81-7.29 2.09-9.31 2.09-11.96L2.09-11.96Q2.09-14.44 2.85-16.53 3.61-18.62 5.07-20.09 6.52-21.57 8.61-22.4 10.7-23.23 13.35-23.23L13.35-23.23Q15.92-23.23 18.22-22.83 20.53-22.44 22.14-22.01L22.14-22.01ZM36.84-3.7L36.84-3.7Q39.28-3.7 40.54-3.96L40.54-3.96 40.54-9.79Q40.1-9.92 39.28-10.05 38.45-10.18 37.45-10.18L37.45-10.18Q36.58-10.18 35.69-10.05 34.8-9.92 34.08-9.57 33.36-9.22 32.93-8.59 32.49-7.96 32.49-7L32.49-7Q32.49-5.13 33.66-4.41 34.84-3.7 36.84-3.7ZM36.41-23.31L36.41-23.31Q39.01-23.31 40.8-22.66 42.58-22.01 43.65-20.83 44.71-19.66 45.17-17.99 45.63-16.31 45.63-14.31L45.63-14.31 45.63-0.52Q44.41-0.26 41.95 0.11 39.49 0.48 36.41 0.48L36.41 0.48Q34.36 0.48 32.66 0.09 30.97-0.3 29.77-1.17 28.58-2.04 27.9-3.44 27.23-4.83 27.23-6.87L27.23-6.87Q27.23-8.83 27.99-10.18 28.75-11.53 30.05-12.37 31.36-13.22 33.08-13.59 34.8-13.96 36.67-13.96L36.67-13.96Q37.54-13.96 38.49-13.85 39.45-13.74 40.54-13.48L40.54-13.48 40.54-14.35Q40.54-15.27 40.32-16.09 40.1-16.92 39.56-17.55 39.01-18.18 38.12-18.53 37.23-18.88 35.88-18.88L35.88-18.88Q34.06-18.88 32.53-18.62 31.01-18.35 30.05-18.01L30.05-18.01 29.4-22.27Q30.4-22.62 32.32-22.97 34.23-23.31 36.41-23.31ZM57.37-22.75L57.37 0 52.11 0 52.11-22.75 57.37-22.75ZM57.93-29.4L57.93-29.4Q57.93-27.92 56.98-27.05 56.02-26.18 54.72-26.18L54.72-26.18Q53.37-26.18 52.41-27.05 51.45-27.92 51.45-29.4L51.45-29.4Q51.45-30.92 52.41-31.79 53.37-32.66 54.72-32.66L54.72-32.66Q56.02-32.66 56.98-31.79 57.93-30.92 57.93-29.4ZM64.07 0L64.07-22.01Q65.59-22.44 68.03-22.83 70.46-23.23 73.42-23.23L73.42-23.23Q76.2-23.23 78.07-22.47 79.94-21.7 81.05-20.33 82.16-18.96 82.62-17.03 83.07-15.09 83.07-12.79L83.07-12.79 83.07 0 77.81 0 77.81-11.96Q77.81-13.79 77.57-15.07 77.33-16.35 76.79-17.16 76.25-17.96 75.31-18.33 74.38-18.7 73.03-18.7L73.03-18.7Q72.03-18.7 70.94-18.57 69.85-18.44 69.33-18.35L69.33-18.35 69.33 0 64.07 0ZM89.25-9.05L89.25-28.75 94.51-29.62 94.51-22.75 102.6-22.75 102.6-18.35 94.51-18.35 94.51-9.09Q94.51-6.35 95.38-5.18 96.25-4 98.34-4L98.34-4Q99.78-4 100.89-4.31 102-4.61 102.65-4.87L102.65-4.87 103.52-0.7Q102.6-0.3 101.13 0.11 99.65 0.52 97.65 0.52L97.65 0.52Q95.21 0.52 93.58-0.13 91.95-0.78 90.99-2.02 90.03-3.26 89.64-5.02 89.25-6.79 89.25-9.05L89.25-9.05ZM106.04-11.27L106.04-11.27Q106.04-14.27 106.93-16.53 107.82-18.79 109.3-20.29 110.78-21.79 112.69-22.55 114.61-23.31 116.61-23.31L116.61-23.31Q121.31-23.31 123.94-20.4 126.57-17.48 126.57-11.7L126.57-11.7Q126.57-11.27 126.55-10.72 126.53-10.18 126.48-9.74L126.48-9.74 111.48-9.74Q111.69-7 113.41-5.5 115.13-4 118.39-4L118.39-4Q120.31-4 121.89-4.35 123.48-4.7 124.39-5.09L124.39-5.09 125.09-0.78Q124.66-0.57 123.89-0.33 123.13-0.09 122.15 0.11 121.18 0.3 120.05 0.43 118.91 0.57 117.74 0.57L117.74 0.57Q114.74 0.57 112.52-0.33 110.3-1.22 108.87-2.81 107.43-4.39 106.74-6.55 106.04-8.7 106.04-11.27ZM111.52-13.61L121.31-13.61Q121.31-14.7 121-15.68 120.7-16.66 120.11-17.38 119.52-18.09 118.68-18.51 117.83-18.92 116.65-18.92L116.65-18.92Q115.43-18.92 114.52-18.46 113.61-18.01 112.98-17.27 112.35-16.53 112-15.57 111.65-14.61 111.52-13.61L111.52-13.61ZM130.88-11.35L130.88-11.35Q130.88-13.87 131.66-16.07 132.44-18.27 133.9-19.88 135.36-21.49 137.44-22.4 139.53-23.31 142.14-23.31L142.14-23.31Q145.36-23.31 148.23-22.14L148.23-22.14 147.1-17.83Q146.19-18.22 145.03-18.49 143.88-18.75 142.58-18.75L142.58-18.75Q139.49-18.75 137.88-16.81 136.27-14.88 136.27-11.35L136.27-11.35Q136.27-7.96 137.79-5.98 139.31-4 142.92-4L142.92-4Q144.27-4 145.58-4.26 146.88-4.52 147.84-4.91L147.84-4.91 148.58-0.57Q147.71-0.13 145.95 0.22 144.18 0.57 142.31 0.57L142.31 0.57Q139.4 0.57 137.25-0.33 135.09-1.22 133.68-2.81 132.27-4.39 131.57-6.59 130.88-8.79 130.88-11.35ZM157.93 0L152.67 0 152.67-32.88 157.93-33.75 157.93-22.49Q158.8-22.79 159.95-23.01 161.1-23.23 162.24-23.23L162.24-23.23Q164.98-23.23 166.78-22.47 168.59-21.7 169.67-20.33 170.76-18.96 171.22-17.05 171.67-15.14 171.67-12.79L171.67-12.79 171.67 0 166.41 0 166.41-11.96Q166.41-13.79 166.17-15.07 165.93-16.35 165.39-17.16 164.84-17.96 163.93-18.33 163.02-18.7 161.67-18.7L161.67-18.7Q160.63-18.7 159.54-18.49 158.45-18.27 157.93-18.09L157.93-18.09 157.93 0ZM181.33-22.75L186.16-15.31 190.99-22.75 196.51-22.75 189.03-12Q191.38-8.96 193.53-5.85 195.68-2.74 197.07 0L197.07 0 191.38 0Q190.99-0.83 190.35-1.89 189.72-2.96 189.01-4.11 188.29-5.26 187.51-6.39 186.72-7.52 185.98-8.52L185.98-8.52Q184.46-6.57 183-4.2 181.55-1.83 180.59 0L180.59 0 175.2 0Q175.85-1.3 176.76-2.78 177.68-4.26 178.72-5.81 179.76-7.35 180.87-8.89 181.98-10.44 183.07-11.83L183.07-11.83 175.54-22.75 181.33-22.75ZM216.08-11.27L216.08-11.27Q216.08-14.79 214.49-16.75 212.91-18.7 209.38-18.7L209.38-18.7Q208.64-18.7 207.84-18.64 207.03-18.57 206.25-18.35L206.25-18.35 206.25-5.35Q206.95-4.87 208.1-4.46 209.25-4.05 210.56-4.05L210.56-4.05Q213.43-4.05 214.76-6 216.08-7.96 216.08-11.27ZM221.48-11.35L221.48-11.35Q221.48-8.74 220.8-6.57 220.13-4.39 218.87-2.83 217.6-1.26 215.71-0.39 213.82 0.48 211.43 0.48L211.43 0.48Q209.82 0.48 208.47 0.09 207.12-0.3 206.25-0.78L206.25-0.78 206.25 8.05 200.99 8.05 200.99-22.01Q202.6-22.44 204.95-22.83 207.3-23.23 209.91-23.23L209.91-23.23Q212.6-23.23 214.73-22.4 216.86-21.57 218.37-20.03 219.87-18.49 220.67-16.29 221.48-14.09 221.48-11.35Z" transform="translate(-2.0899999141693115, 33.75)" fill="#0A0619"/>
          </g>
        </g>
      </g>
    </g>
  </g>
</svg>